<svg xmlns="http://www.w3.org/2000/svg" enable-background="new 0 0 64 64" viewBox="0 0 64 64" id="image-gallery">
  <path fill="#2a3a3e" d="M7.16 2.33c0-.11-.09-.21-.21-.21H4.52c-.11 0-.21.09-.21.21v1.52C1.92 3.97 0 5.94 0 8.36v20.34c0 2.5 2.04 4.55 4.54 4.55h4.08V3.83H7.16V2.33zM48.34 27.31V8.36c0-2.5-2.04-4.54-4.54-4.54h-9.16l-1.66-3.43c-.06-.15-.19-.23-.34-.23H21.51c-.14 0-.28.09-.34.23l-1.66 3.43h-8.77v29.43H36.9L48.34 27.31zM12.24 9.81V7.59c0-.88.71-1.6 1.6-1.6h4.21c.88 0 1.6.71 1.6 1.6v2.23c0 .88-.71 1.6-1.6 1.6h-4.21C12.96 11.41 12.24 10.7 12.24 9.81zM17.52 19.47c0-6.41 5.22-11.63 11.63-11.63 6.4 0 11.62 5.21 11.62 11.63 0 6.4-5.21 11.61-11.62 11.61C22.74 31.08 17.52 25.87 17.52 19.47z"></path>
  <polygon fill="#2a3a3e" points="35.93 43.37 39.2 43.37 36.33 41.24"></polygon>
  <path fill="#2a3a3e" d="M59.07,48.99c-0.83,0-1.5,0.67-1.5,1.5c0,0.82,0.67,1.49,1.5,1.49c0.82,0,1.49-0.67,1.49-1.49
		C60.56,49.66,59.89,48.99,59.07,48.99z"></path>
  <polygon fill="#2a3a3e" points="48.78 43.37 44.69 40.77 44.59 43.37"></polygon>
  <path fill="#2a3a3e" d="M34.77,39.74c0.06-0.36,0.31-0.66,0.65-0.8c0.34-0.13,0.74-0.09,1.02,0.14l5.37,3.97h0.98l0.14-3.66
		c0.01-0.38,0.23-0.72,0.56-0.91c0.34-0.17,0.75-0.16,1.08,0.05l7.09,4.51h7.36L51.3,28.17l-1.47,0.77h-0.01L37.58,35.3l-14.03,7.29
		l7.05,13.57V44.12c0-0.59,0.47-1.07,1.07-1.07h2.48L34.77,39.74z M46.2,34.16c0.27-0.84,0.84-1.53,1.63-1.94
		c0.78-0.41,1.67-0.49,2.53-0.22c0.84,0.27,1.52,0.85,1.93,1.63c0.84,1.62,0.21,3.62-1.41,4.46c-0.49,0.26-1,0.37-1.52,0.37
		c-1.19,0-2.34-0.65-2.94-1.78C46.01,35.9,45.94,35,46.2,34.16z"></path>
  <polygon fill="#2a3a3e" points="46.72 63.84 58.05 63.84 52.34 53.95"></polygon>
  <path fill="#2a3a3e" d="M32.74,45.18v18.66h0.75l9.65-15.48c0.19-0.31,0.53-0.49,0.9-0.5c0.4,0.01,0.7,0.18,0.9,0.48l4.39,6.63
		l2.09-3.69c0.19-0.33,0.54-0.53,0.93-0.53s0.74,0.2,0.93,0.53l7.26,12.56H64V45.18H32.74z M59.07,53.79c-1.83,0-3.31-1.48-3.31-3.3
		c0-1.82,1.48-3.31,3.31-3.31c1.82,0,3.3,1.49,3.3,3.31C62.37,52.31,60.89,53.79,59.07,53.79z"></path>
  <polygon fill="#2a3a3e" points="44.06 50.89 35.99 63.84 44.27 63.84 48.13 57.04"></polygon>
  <path fill="#2a3a3e" d="M49.36 36.66c.24 0 .48-.06.69-.17.35-.17.61-.48.74-.87.13-.39.09-.8-.09-1.14-.19-.36-.5-.62-.89-.75-.16-.04-.3-.06-.43-.06-.24 0-.47.05-.69.17-.35.19-.61.5-.73.88-.13.39-.09.8.09 1.14C48.29 36.34 48.8 36.66 49.36 36.66zM29.14 9.97c-5.23 0-9.49 4.26-9.49 9.49 0 5.23 4.26 9.48 9.49 9.48 5.23 0 9.48-4.25 9.48-9.48C38.63 14.24 34.38 9.97 29.14 9.97zM29.14 26.7c-3.99 0-7.24-3.25-7.24-7.24 0-4 3.25-7.24 7.24-7.24 3.99 0 7.24 3.24 7.24 7.24C36.38 23.45 33.13 26.7 29.14 26.7z"></path>
  <path fill="#2a3a3e" d="M29.14,14.36c-2.81,0-5.1,2.29-5.1,5.1c0,2.81,2.29,5.1,5.1,5.1c2.81,0,5.1-2.29,5.1-5.1
		C34.25,16.66,31.96,14.36,29.14,14.36z"></path>
  <rect width="4.21" height="2.23" x="13.84" y="7.59" fill="#2a3a3e"></rect>
</svg>
