<svg xmlns="http://www.w3.org/2000/svg" enable-background="new 0 0 512 512" viewBox="0 0 512 512" id="photos">
  <path fill="#f2f0f0" d="M499.524,167.828l0.024,328.123c0.001,8.851-7.174,16.027-16.026,16.028L180.306,512c-8.851,0.001-16.027-7.174-16.028-16.026l-0.024-328.123c-0.001-8.851,7.174-16.027,16.026-16.028l303.217-0.021C492.348,151.802,499.524,158.976,499.524,167.828z"></path>
  <path d="M499.524,167.828l0.024,328.123c0.001,8.868-7.158,16.027-16.026,16.028l-21.209,0.001c8.815-0.001,16.026-7.16,16.026-16.028l-0.024-328.123c-0.001-8.868-7.213-16.026-16.028-16.026l21.209-0.001C492.364,151.802,499.524,158.96,499.524,167.828z" opacity=".08"></path>
  <rect width="271.176" height="245.211" x="196.304" y="182.531" fill="#f96464"></rect>
  <path fill="#5b5b5b" d="M467.484,356.413l0.005,71.319l-149.745,0.01c0.328-0.534,83.44-136.039,83.077-135.448c6.255-10.193,21.066-10.193,27.321,0L467.484,356.413z"></path>
  <path fill="#6d6d6d" d="M409.846,427.736l-213.532,0.015l-0.005-68.114l71.396-111.177c6.307-9.822,20.662-9.822,26.97-0.002C432.848,463.56,319.422,286.985,409.846,427.736z"></path>
  <g>
    <path fill="#ffce29" d="M390.118,229.578c0.001,14.851-12.018,26.926-26.87,26.927c-14.852,0.001-26.873-12.072-26.874-26.923c-0.001-14.852,12.018-26.873,26.87-26.874C378.096,202.707,390.117,214.726,390.118,229.578z"></path>
  </g>
  <g>
    <path fill="#f2f0f0" d="M347.722,16.026l0.024,328.123c0.001,8.851-7.174,16.027-16.026,16.028l-303.217,0.021c-8.851,0.001-16.027-7.174-16.028-16.026L12.452,16.049C12.451,7.198,19.626,0.022,28.478,0.021L331.694,0C340.546-0.001,347.722,7.174,347.722,16.026z"></path>
    <path d="M347.722,16.026l0.024,328.123c0.001,8.868-7.158,16.027-16.026,16.028l-21.209,0.001c8.815-0.001,16.026-7.16,16.026-16.028l-0.024-328.123c-0.001-8.868-7.213-16.026-16.028-16.026L331.694,0C340.562-0.001,347.722,7.157,347.722,16.026z" opacity=".08"></path>
    <rect width="271.176" height="245.211" x="44.502" y="30.729" fill="#66d5f2"></rect>
    <path fill="#5b5b5b" d="M315.682,204.611l0.005,71.319l-149.745,0.01c0.328-0.534,83.44-136.039,83.077-135.448c6.255-10.193,21.066-10.193,27.321,0L315.682,204.611z"></path>
    <path fill="#6d6d6d" d="M258.043,275.934l-213.532,0.015l-0.005-68.114l71.396-111.177c6.307-9.822,20.662-9.822,26.97-0.002C281.045,311.758,167.62,135.183,258.043,275.934z"></path>
    <g>
      <path fill="#ffce29" d="M238.316,77.776c0.001,14.851-12.018,26.926-26.87,26.927c-14.852,0.001-26.873-12.072-26.874-26.923c-0.001-14.852,12.018-26.873,26.87-26.874C226.294,50.905,238.315,62.924,238.316,77.776z"></path>
    </g>
  </g>
</svg>
